<svg width="204" height="44" viewBox="0 0 204 44" fill="none" xmlns="http://www.w3.org/2000/svg">
<path d="M2.27557 35V8.81818H19.9176V13.3821H7.81108V19.6207H19.0099V24.1847H7.81108V30.4361H19.9688V35H2.27557ZM22.8995 41.3153V30.5895H24.6765C25.2816 30.1548 25.8356 29.5412 26.3384 28.7486C26.8413 27.9474 27.2717 26.8438 27.6296 25.4375C27.9876 24.0227 28.2433 22.1733 28.3967 19.8892L29.1381 8.81818H46.4606V30.5895H49.3242V41.2898H44.006V35H28.2177V41.3153H22.8995ZM31.0685 30.5895H41.1424V13.3821H34.1239L33.7148 19.8892C33.604 21.6193 33.4208 23.1534 33.1651 24.4915C32.918 25.8295 32.6154 27.0014 32.2575 28.0071C31.908 29.0043 31.5117 29.8651 31.0685 30.5895ZM57.2024 35H51.2706L60.3089 8.81818H67.4425L76.468 35H70.5362L63.978 14.8011H63.7734L57.2024 35ZM56.8317 24.7088H70.843V29.0298H56.8317V24.7088Z" fill="#000"/>
<path d="M125.857 41.3153V30.5895H127.634C128.239 30.1548 128.793 29.5412 129.295 28.7486C129.798 27.9474 130.229 26.8438 130.587 25.4375C130.945 24.0227 131.2 22.1733 131.354 19.8892L132.095 8.81818H149.418V30.5895H152.281V41.2898H146.963V35H131.175V41.3153H125.857ZM134.026 30.5895H144.099V13.3821H137.081L136.672 19.8892C136.561 21.6193 136.378 23.1534 136.122 24.4915C135.875 25.8295 135.572 27.0014 135.214 28.0071C134.865 29.0043 134.469 29.8651 134.026 30.5895ZM155.647 35V8.81818H173.289V13.3821H161.182V19.6207H172.381V24.1847H161.182V30.4361H173.34V35H155.647ZM176.271 41.3153V30.5895H178.048C178.653 30.1548 179.207 29.5412 179.71 28.7486C180.212 27.9474 180.643 26.8438 181.001 25.4375C181.359 24.0227 181.614 22.1733 181.768 19.8892L182.509 8.81818H199.832V30.5895H202.695V41.2898H197.377V35H181.589V41.3153H176.271ZM184.44 30.5895H194.513V13.3821H187.495L187.086 19.8892C186.975 21.6193 186.792 23.1534 186.536 24.4915C186.289 25.8295 185.987 27.0014 185.629 28.0071C185.279 29.0043 184.883 29.8651 184.44 30.5895Z" fill="#000"/>
<path d="M124 22C124 34.1503 114.15 44 102 44C89.8497 44 80 34.1503 80 22C80 9.84974 89.8497 0 102 0C114.15 0 124 9.84974 124 22Z" fill="#000"/>
<path d="M97 23H115.679V30.5V38L106.34 25.4762L97 38V23Z" fill="white"/>
</svg>
